<svg width="720" height="29" viewBox="0 0 720 29" fill="none" xmlns="http://www.w3.org/2000/svg">
<path d="M19.9219 20.7031V22.2266H0.84375V20.7031H9.42188V16.2031H3.09375V5.53906H4.94531V9.3125H15.7734V5.53906H17.5781V16.2031H11.2266V20.7031H19.9219ZM4.94531 14.7031H15.7734V10.8125H4.94531V14.7031ZM38.8125 4.0625V24.8984H36.9609V4.0625H38.8125ZM32.6484 6.33594C32.625 12.3359 29.8359 17.6328 22.8516 20.9844L21.8438 19.4844C27.4805 16.8125 30.3516 12.8164 30.7734 7.83594H22.8047V6.33594H32.6484ZM66.1406 4.0625V24.8984H64.3359V14.1172H61.3359V23.8203H59.6016V4.53125H61.3359V12.5469H64.3359V4.0625H66.1406ZM51.2344 6.61719V17.8672C53.3086 17.8438 55.5117 17.7031 58.0547 17.1875L58.2891 18.8281C55.3828 19.3438 52.9922 19.5078 50.6953 19.5078H49.4062V6.61719H51.2344ZM88.0781 14.375V15.8984H69.0938V14.375H73.8047V11.4453C72.1406 10.8008 71.2031 9.73438 71.2031 8.32812C71.2031 5.86719 74.0156 4.46094 78.5859 4.46094C83.1094 4.46094 85.9453 5.86719 85.9453 8.32812C85.9453 9.72266 85.0195 10.7891 83.3672 11.4219V14.375H88.0781ZM78.5859 17.4922C83.0625 17.4922 85.7344 18.7812 85.7578 21.1719C85.7344 23.5391 83.0625 24.8516 78.5859 24.8516C74.0625 24.8516 71.3906 23.5391 71.3906 21.1719C71.3906 18.7812 74.0625 17.4922 78.5859 17.4922ZM78.5859 18.8984C75.2344 18.9219 73.2422 19.7422 73.2656 21.1719C73.2422 22.5781 75.2344 23.4219 78.5859 23.4219C81.8906 23.4219 83.9062 22.5781 83.9062 21.1719C83.9062 19.7422 81.8906 18.9219 78.5859 18.8984ZM78.5859 5.91406C75.1875 5.91406 73.0781 6.82812 73.1016 8.32812C73.0781 9.85156 75.1875 10.7422 78.5859 10.7422C81.9609 10.7422 84.0703 9.85156 84.0703 8.32812C84.0703 6.82812 81.9609 5.91406 78.5859 5.91406ZM75.6328 14.375H81.5391V11.9375C80.6602 12.0898 79.6758 12.1719 78.5859 12.1719C77.4961 12.1719 76.5117 12.0898 75.6328 11.9375V14.375ZM107.016 4.0625V24.9453H105.164V4.0625H107.016ZM95.9297 5.67969C99.0234 5.70312 101.25 8.51562 101.25 12.9453C101.25 17.375 99.0234 20.1875 95.9297 20.1875C92.8125 20.1875 90.6094 17.375 90.6094 12.9453C90.6094 8.51562 92.8125 5.70312 95.9297 5.67969ZM95.9297 7.32031C93.8438 7.34375 92.3906 9.54688 92.3906 12.9453C92.3906 16.3438 93.8438 18.5469 95.9297 18.5469C98.0156 18.5469 99.4688 16.3438 99.4688 12.9453C99.4688 9.54688 98.0156 7.34375 95.9297 7.32031ZM135.609 12.8281V14.3047H116.602V12.8281H135.609ZM133.336 9.61719V11.1172H119.133V4.78906H133.125V6.26562H120.984V9.61719H133.336ZM133.148 16.1797V21.0078H120.773V23.1641H133.781V24.6641H118.945V19.625H131.344V17.6094H118.898V16.1797H133.148ZM142.945 5.67969C145.781 5.70312 147.82 8.12891 148.125 12.0312H152.789V4.0625H154.617V24.9453H152.789V13.5547H148.148C147.926 17.6328 145.852 20.1875 142.945 20.1875C139.875 20.1875 137.719 17.375 137.719 12.9453C137.719 8.51562 139.875 5.70312 142.945 5.67969ZM142.945 7.32031C140.883 7.34375 139.477 9.54688 139.477 12.9453C139.477 16.3438 140.883 18.5469 142.945 18.5469C144.984 18.5469 146.414 16.3438 146.414 12.9453C146.414 9.54688 144.984 7.34375 142.945 7.32031ZM174.375 4.0625V9.03125H177.516V10.5781H174.375V15.3359H172.523V4.0625H174.375ZM168.703 5.35156C168.703 10.5547 164.977 14.0938 158.836 15.6172L158.133 14.0938C163.289 12.8516 166.348 10.2148 166.688 6.85156H159.047V5.35156H168.703ZM162.984 16.2969V18.9453H172.547V16.2969H174.375V24.6172H161.133V16.2969H162.984ZM162.984 23.1172H172.547V20.4219H162.984V23.1172ZM196.008 4.0625V24.8984H194.18V4.0625H196.008ZM181.992 6.125V17.9375C185.168 17.9258 188.461 17.668 191.953 16.9297L192.211 18.5C188.508 19.2734 185.203 19.5312 181.875 19.5312H180.188V6.125H181.992ZM215.695 4.0625V12.3125H219.188V13.8594H215.695V24.9453H213.867V4.0625H215.695ZM210.211 6.10156V7.625H202.312V18.1719C206.086 18.1719 208.758 17.9961 211.852 17.4219L212.086 19.0156C208.828 19.6016 206.086 19.7188 202.125 19.7188H200.484V6.10156H210.211ZM222.516 23.1406C221.695 23.1406 220.992 22.4609 221.016 21.6172C220.992 20.7969 221.695 20.1172 222.516 20.1172C223.336 20.1172 224.016 20.7969 224.016 21.6172C224.016 22.4609 223.336 23.1406 222.516 23.1406Z" fill="black"/>
<path d="M716 8.5L705 19.5L700 14.5" stroke="black" stroke-width="2" stroke-linecap="round" stroke-linejoin="round"/>
</svg>
