<svg viewBox="0 0 41 40" fill="none" xmlns="http://www.w3.org/2000/svg">
<path d="M20.5008 38.5729C30.7584 38.5729 39.0739 30.2574 39.0739 19.9998C39.0739 9.7422 30.7584 1.42676 20.5008 1.42676C10.2432 1.42676 1.92773 9.7422 1.92773 19.9998C1.92773 30.2574 10.2432 38.5729 20.5008 38.5729Z" fill="none"/>
<path d="M20.5 40C9.4726 40 0.5 31.0274 0.5 20C0.5 8.9726 9.4707 0 20.5 0C31.5293 0 40.5 8.9726 40.5 20C40.5 31.0274 31.5274 40 20.5 40ZM20.5 2.85388C11.046 2.85388 3.35388 10.546 3.35388 20C3.35388 29.454 11.046 37.1461 20.5 37.1461C29.954 37.1461 37.6461 29.454 37.6461 20C37.6461 10.546 29.954 2.85388 20.5 2.85388Z" fill="currentColor"/>
<path d="M13.6518 15.8426C14.9222 15.8426 15.952 14.8128 15.952 13.5424C15.952 12.272 14.9222 11.2422 13.6518 11.2422C12.3814 11.2422 11.3516 12.272 11.3516 13.5424C11.3516 14.8128 12.3814 15.8426 13.6518 15.8426Z" fill="currentColor" stroke="currentColor" stroke-miterlimit="10"/>
<path d="M27.349 15.8426C28.6194 15.8426 29.6493 14.8128 29.6493 13.5424C29.6493 12.272 28.6194 11.2422 27.349 11.2422C26.0787 11.2422 25.0488 12.272 25.0488 13.5424C25.0488 14.8128 26.0787 15.8426 27.349 15.8426Z" fill="currentColor" stroke="currentColor" stroke-miterlimit="10"/>
<path d="M10.6699 21.6172C11.5641 26.231 15.6262 29.7146 20.5006 29.7146C25.375 29.7146 29.437 26.231 30.3313 21.6172" fill="none"/>
<path d="M20.4995 31.1415C15.0296 31.1415 10.3074 27.2507 9.26666 21.8892C9.11636 21.1148 9.62245 20.3671 10.3968 20.2168C11.1731 20.0684 11.9189 20.5726 12.0692 21.347C12.8492 25.369 16.3937 28.2895 20.4995 28.2895C24.6053 28.2895 28.1498 25.3709 28.9299 21.347C29.0802 20.5726 29.826 20.0684 30.6023 20.2168C31.3766 20.3671 31.8808 21.1148 31.7324 21.8892C30.6936 27.2507 25.9695 31.1415 20.4995 31.1415Z" fill="currentColor"/>
</svg>
