<svg viewBox="0 0 41 40" fill="none" xmlns="http://www.w3.org/2000/svg">
<path d="M20.5008 38.5729C30.7584 38.5729 39.0739 30.2574 39.0739 19.9998C39.0739 9.7422 30.7584 1.42676 20.5008 1.42676C10.2432 1.42676 1.92773 9.7422 1.92773 19.9998C1.92773 30.2574 10.2432 38.5729 20.5008 38.5729Z" fill="none"/>
<path d="M20.5 40C9.4726 40 0.5 31.0293 0.5 20C0.5 8.9707 9.4726 0 20.5 0C31.5274 0 40.5 8.9726 40.5 20C40.5 31.0274 31.5274 40 20.5 40ZM20.5 2.85388C11.046 2.85388 3.35388 10.546 3.35388 20C3.35388 29.454 11.046 37.1461 20.5 37.1461C29.954 37.1461 37.6461 29.454 37.6461 20C37.6461 10.546 29.954 2.85388 20.5 2.85388Z" fill="currentColor"/>
<path d="M13.6498 15.8426C14.9202 15.8426 15.9501 14.8128 15.9501 13.5424C15.9501 12.272 14.9202 11.2422 13.6498 11.2422C12.3795 11.2422 11.3496 12.272 11.3496 13.5424C11.3496 14.8128 12.3795 15.8426 13.6498 15.8426Z" fill="currentColor" stroke="currentColor" stroke-miterlimit="10"/>
<path d="M27.3491 15.8426C28.6194 15.8426 29.6493 14.8128 29.6493 13.5424C29.6493 12.272 28.6194 11.2422 27.3491 11.2422C26.0787 11.2422 25.0488 12.272 25.0488 13.5424C25.0488 14.8128 26.0787 15.8426 27.3491 15.8426Z" fill="currentColor" stroke="currentColor" stroke-miterlimit="10"/>
<path d="M28.741 28.9249C29.7551 28.9249 30.5256 28.0021 30.3334 27.0071C29.4392 22.3933 25.3772 18.9097 20.5028 18.9097C15.6283 18.9097 11.5663 22.3933 10.6721 27.0071C10.4799 28.0021 11.2505 28.9249 12.2646 28.9249H28.7429H28.741Z" fill="none"/>
<path d="M28.7398 30.352H12.2614C11.3463 30.352 10.4882 29.9468 9.90604 29.2409C9.32766 28.5388 9.09364 27.6256 9.26677 26.7352C10.3056 21.3737 15.0297 17.4829 20.4997 17.4829C25.9696 17.4829 30.6918 21.3737 31.7325 26.7352C31.9057 27.6256 31.6716 28.5388 31.0933 29.2409C30.5111 29.9468 29.653 30.352 28.7379 30.352H28.7398ZM20.4997 20.3368C16.3939 20.3368 12.8493 23.2554 12.0693 27.2793C12.0598 27.3326 12.0712 27.3821 12.1073 27.4258C12.134 27.4582 12.1834 27.4981 12.2595 27.4981H28.7379C28.814 27.4981 28.8634 27.4582 28.8901 27.4258C28.9262 27.3821 28.9395 27.3326 28.9281 27.2793C28.1481 23.2573 24.6016 20.3368 20.4977 20.3368H20.4997Z" fill="currentColor"/>
</svg>
