<svg width="41" height="40" viewBox="0 0 41 40" fill="none" xmlns="http://www.w3.org/2000/svg">
<path d="M20.5008 38.5729C30.7584 38.5729 39.0739 30.2574 39.0739 19.9998C39.0739 9.7422 30.7584 1.42676 20.5008 1.42676C10.2432 1.42676 1.92773 9.7422 1.92773 19.9998C1.92773 30.2574 10.2432 38.5729 20.5008 38.5729Z" fill="none"/>
<path d="M20.5 40C9.4726 40 0.5 31.0274 0.5 20C0.5 8.9726 9.4707 0 20.5 0C31.5293 0 40.5 8.9726 40.5 20C40.5 31.0274 31.5274 40 20.5 40ZM20.5 2.85388C11.046 2.85388 3.35388 10.546 3.35388 20C3.35388 29.454 11.046 37.1461 20.5 37.1461C29.954 37.1461 37.6461 29.454 37.6461 20C37.6461 10.546 29.954 2.85388 20.5 2.85388Z" fill="currentColor"/>
<path d="M13.6498 15.8426C14.9202 15.8426 15.9501 14.8128 15.9501 13.5424C15.9501 12.272 14.9202 11.2422 13.6498 11.2422C12.3795 11.2422 11.3496 12.272 11.3496 13.5424C11.3496 14.8128 12.3795 15.8426 13.6498 15.8426Z" fill="currentColor" stroke="currentColor" stroke-miterlimit="10"/>
<path d="M27.3491 15.8426C28.6194 15.8426 29.6493 14.8128 29.6493 13.5424C29.6493 12.272 28.6194 11.2422 27.3491 11.2422C26.0787 11.2422 25.0488 12.272 25.0488 13.5424C25.0488 14.8128 26.0787 15.8426 27.3491 15.8426Z" fill="currentColor" stroke="currentColor" stroke-miterlimit="10"/>
<path d="M30.3313 29.7141C29.437 25.1003 25.375 21.6167 20.5006 21.6167C15.6262 21.6167 11.5641 25.1003 10.6699 29.7141" fill="none"/>
<path d="M30.3278 31.1408C29.6581 31.1408 29.0607 30.6671 28.9294 29.9859C28.1493 25.9639 24.6029 23.0434 20.499 23.0434C16.3951 23.0434 12.8487 25.962 12.0686 29.9859C11.9183 30.7603 11.1706 31.2645 10.3963 31.1161C9.62192 30.9658 9.11774 30.218 9.26614 29.4437C10.305 24.0822 15.0291 20.1914 20.499 20.1914C25.969 20.1914 30.6912 24.0822 31.7319 29.4437C31.8822 30.218 31.3761 30.9658 30.6018 31.1161C30.5104 31.1332 30.4191 31.1427 30.3278 31.1427V31.1408Z" fill="currentColor"/>
</svg>
