<svg viewBox="0 0 41 40" fill="none" xmlns="http://www.w3.org/2000/svg">
<path d="M20.5008 38.5729C30.7584 38.5729 39.0739 30.2574 39.0739 19.9998C39.0739 9.7422 30.7584 1.42676 20.5008 1.42676C10.2432 1.42676 1.92773 9.7422 1.92773 19.9998C1.92773 30.2574 10.2432 38.5729 20.5008 38.5729Z" fill="none"/>
<path d="M20.5 40C9.4726 40 0.5 31.0274 0.5 20C0.5 8.9726 9.4726 0 20.5 0C31.5274 0 40.5 8.9726 40.5 20C40.5 31.0274 31.5274 40 20.5 40ZM20.5 2.85388C11.046 2.85388 3.35388 10.546 3.35388 20C3.35388 29.454 11.046 37.1461 20.5 37.1461C29.954 37.1461 37.6461 29.454 37.6461 20C37.6461 10.546 29.954 2.85388 20.5 2.85388Z" fill="currentColor"/>
<path d="M13.6498 15.8426C14.9202 15.8426 15.9501 14.8128 15.9501 13.5424C15.9501 12.272 14.9202 11.2422 13.6498 11.2422C12.3795 11.2422 11.3496 12.272 11.3496 13.5424C11.3496 14.8128 12.3795 15.8426 13.6498 15.8426Z" fill="currentColor" stroke="currentColor" stroke-miterlimit="10"/>
<path d="M27.3491 15.8426C28.6194 15.8426 29.6493 14.8128 29.6493 13.5424C29.6493 12.272 28.6194 11.2422 27.3491 11.2422C26.0787 11.2422 25.0488 12.272 25.0488 13.5424C25.0488 14.8128 26.0787 15.8426 27.3491 15.8426Z" fill="currentColor" stroke="currentColor" stroke-miterlimit="10"/>
<path d="M30.5142 26.1586H10.4894C9.70177 26.1586 9.0625 25.5193 9.0625 24.7316C9.0625 23.944 9.70177 23.3047 10.4894 23.3047H30.5142C31.3018 23.3047 31.9411 23.944 31.9411 24.7316C31.9411 25.5193 31.3018 26.1586 30.5142 26.1586Z" fill="currentColor"/>
</svg>
