<svg width="41" height="40" viewBox="0 0 41 40" fill="none" xmlns="http://www.w3.org/2000/svg">
<path d="M20.5008 38.5729C30.7584 38.5729 39.0739 30.2574 39.0739 19.9998C39.0739 9.7422 30.7584 1.42676 20.5008 1.42676C10.2432 1.42676 1.92773 9.7422 1.92773 19.9998C1.92773 30.2574 10.2432 38.5729 20.5008 38.5729Z" fill="none"/>
<path d="M20.5 40C9.4726 40 0.5 31.0274 0.5 20C0.5 8.9726 9.4726 0 20.5 0C31.5274 0 40.5 8.9726 40.5 20C40.5 31.0274 31.5274 40 20.5 40ZM20.5 2.85388C11.046 2.85388 3.35388 10.546 3.35388 20C3.35388 29.454 11.046 37.1461 20.5 37.1461C29.954 37.1461 37.6461 29.454 37.6461 20C37.6461 10.546 29.954 2.85388 20.5 2.85388Z" fill="currentColor"/>
<path d="M13.6498 15.8426C14.9202 15.8426 15.9501 14.8128 15.9501 13.5424C15.9501 12.272 14.9202 11.2422 13.6498 11.2422C12.3795 11.2422 11.3496 12.272 11.3496 13.5424C11.3496 14.8128 12.3795 15.8426 13.6498 15.8426Z" fill="currentColor" stroke="currentColor" stroke-miterlimit="10"/>
<path d="M27.3491 15.8426C28.6194 15.8426 29.6493 14.8128 29.6493 13.5424C29.6493 12.272 28.6194 11.2422 27.3491 11.2422C26.0787 11.2422 25.0488 12.272 25.0488 13.5424C25.0488 14.8128 26.0787 15.8426 27.3491 15.8426Z" fill="currentColor" stroke="currentColor" stroke-miterlimit="10"/>
<path d="M12.2607 20C11.2466 20 10.476 20.9228 10.6682 21.9178C11.5624 26.5316 15.6244 30.0152 20.4989 30.0152C25.3733 30.0152 29.4353 26.5316 30.3295 21.9178C30.5217 20.9228 29.7512 20 28.7371 20H12.2588H12.2607Z" fill="none"/>
<path d="M20.4996 31.4423C15.0297 31.4423 10.3075 27.5516 9.26677 22.1901C9.09364 21.2996 9.32765 20.3864 9.90604 19.6844C10.4882 18.9785 11.3463 18.5732 12.2614 18.5732H28.7398C29.6549 18.5732 30.513 18.9785 31.0952 19.6844C31.6736 20.3864 31.9076 21.2996 31.7344 22.1901C30.6956 27.5516 25.9715 31.4423 20.5016 31.4423H20.4996ZM12.2614 21.4271C12.1853 21.4271 12.1359 21.4671 12.1092 21.4994C12.0731 21.5432 12.0598 21.5926 12.0693 21.6459C12.8493 25.668 16.3958 28.5885 20.4996 28.5885C24.6035 28.5885 28.15 25.6699 28.93 21.6459C28.9395 21.5926 28.9281 21.5432 28.892 21.4994C28.8653 21.4671 28.8159 21.4271 28.7398 21.4271H12.2614Z" fill="currentColor"/>
</svg>
