<svg width="42" height="55" viewBox="0 0 42 55" fill="none" xmlns="http://www.w3.org/2000/svg">
<path fill-rule="evenodd" clip-rule="evenodd" d="M21 0C32.598 0 42 9.40202 42 21C42 22.4157 41.8599 23.7986 41.5929 25.1358C39.7394 39.1032 21.1104 55 21.1104 55C21.1104 55 5.25689 41.4717 1.34456 28.4096C0.475507 26.1054 0 23.6083 0 21C0 9.40202 9.40202 0 21 0Z" fill="#F84B5F"/>
<path d="M19.0312 21.7812V22.9688H14.7969V26.3906H20.5V27.6094H7.6875V26.3906H13.3281V22.9688H9.28125V16.4062H18.9062V17.6094H10.7656V21.7812H19.0312ZM26.4219 18.3594C26.4219 20 27.6875 21.5625 29.8281 22.1719L29.125 23.3594C27.5156 22.875 26.3281 21.8516 25.7031 20.5469C25.0859 21.9844 23.8672 23.0859 22.2344 23.6094L21.5 22.4531C23.6406 21.8125 24.9531 20.1562 24.9531 18.3594V18.1562H21.9062V16.9688H24.9531V15.2812H26.4375V16.9688H29.4688V18.1562H26.4219V18.3594ZM32.5156 15.3281V18.9688H34.5469V20.2344H32.5156V23.8906H31.0312V15.3281H32.5156ZM32.5156 24.5625V29.3438H31.0312V25.7656H23.2656V24.5625H32.5156Z" fill="white"/>
</svg>
