<svg width="42" height="55" viewBox="0 0 42 55" fill="none" xmlns="http://www.w3.org/2000/svg">
<path fill-rule="evenodd" clip-rule="evenodd" d="M21 0C32.598 0 42 9.40202 42 21C42 22.4157 41.8599 23.7986 41.5929 25.1358C39.7394 39.1032 21.1104 55 21.1104 55C21.1104 55 5.25689 41.4717 1.34456 28.4096C0.475507 26.1054 0 23.6083 0 21C0 9.40202 9.40202 0 21 0Z" fill="#F84B5F"/>
<path d="M20.4375 21.4688V22.5781H14.7969V23.75H18.8438V26.9062H10.6875V28.0625H19.2344V29.1875H9.23438V25.875H17.375V24.8281H9.21875V23.75H13.3281V22.5781H7.70312V21.4688H20.4375ZM14.7969 15.2656V16.5H19.1719V17.6406H14.9219C15.2031 18.8281 17.1016 19.6562 19.8125 19.7969L19.3594 20.9219C16.9219 20.75 14.9375 20.0312 14.0625 18.7969C13.1875 20.0312 11.2031 20.75 8.75 20.9219L8.32812 19.7969C11.0156 19.6562 12.9062 18.8281 13.2188 17.6406H8.96875V16.5H13.3281V15.2656H14.7969ZM23.5156 15.9219V17.8281H27.1875V15.9219H28.6562V22.0312H22.0625V15.9219H23.5156ZM23.5156 20.8438H27.1875V18.9688H23.5156V20.8438ZM32.5156 15.3281V18.2656H34.5469V19.4688H32.5156V22.5312H31.0312V15.3281H32.5156ZM32.5156 23.1406V26.6719H24.9531V28H33V29.1875H23.5V25.5781H31.0469V24.3125H23.4688V23.1406H32.5156Z" fill="white"/>
</svg>
