<svg width="81" height="86" viewBox="0 0 81 86" fill="none" xmlns="http://www.w3.org/2000/svg">
<path d="M22.2538 0.862935V9.18666H19.8044C18.0089 9.18666 16.8153 11.1482 15.6114 13.7533C17.6249 17.7283 19.9082 20.4476 23.4992 20.4476H24.2569V28.7713H23.4369C17.1786 28.7713 14.6773 25.1802 12.394 21.2156C10.2767 25.4605 7.33957 29.2591 2.22286 29.2591H0.5V20.9354H1.97378C8.22176 20.9354 8.92751 0.862935 19.3685 0.862935H22.2538ZM26.2184 0.862935H34.5421V10.8161H37.6973V0.323242H46.021V33.8257C46.021 39.4302 42.8659 40.8417 37.6973 40.8417V18.3822H34.5421V31.8745C34.5421 37.479 31.4389 38.8905 26.2184 38.8905V0.862935Z" fill="#1F3870"/>
<path d="M64.3908 33.0368V45.2733C57.9768 45.2733 50.255 58.4853 37.3647 58.4853H35.7871V50.1616H37.5307C45.4185 50.1616 50.255 42.2738 56.7313 40.8623H37.6968V33.0264H64.4012L64.3908 33.0368ZM54.6556 75.5168V78.9937H73.2023C77.8209 78.9937 79.3984 77.7378 80.3221 76.1084V83.6641C79.3465 85.1898 77.4369 85.8436 73.3061 85.8436H45.8441V69.5802H70.535V66.477H45.8441V59.627H79.3465V70.7218C79.3465 75.4545 76.3575 75.5064 71.6767 75.5064H54.6556V75.5168ZM70.535 32.4971H79.3465V57.406H70.535V32.4971Z" fill="#1F3870"/>
<path d="M71.4463 8.21875L78.918 5.79199L80.5 10.6611L72.9941 13.0996L77.6113 19.4541L73.4697 22.4639L68.8271 16.0752L64.207 22.4355L60.0654 19.4258L64.7021 13.043L57.2324 10.6152L58.8145 5.74707L66.3262 8.1875V0.323242H71.4463V8.21875Z" fill="url(#paint0_linear_570_9952)"/>
<defs>
<linearGradient id="paint0_linear_570_9952" x1="69.0047" y1="0.323242" x2="69.0047" y2="22.36" gradientUnits="userSpaceOnUse">
<stop stop-color="#3560C0"/>
<stop offset="1" stop-color="#53B3C0"/>
</linearGradient>
</defs>
</svg>
